<svg id="egFHDsaiSmT1" xmlns="http://www.w3.org/2000/svg" xmlns:xlink="http://www.w3.org/1999/xlink" viewBox="-170 0 640 360" shape-rendering="geometricPrecision" text-rendering="geometricPrecision" style="background-color:transparent"><defs><linearGradient id="egFHDsaiSmT3-fill" x1="0.5" y1="0" x2="0.5" y2="1" spreadMethod="pad" gradientUnits="objectBoundingBox" gradientTransform="translate(0 0)"><stop id="egFHDsaiSmT3-fill-0" offset="0%" stop-color="#311f50"/><stop id="egFHDsaiSmT3-fill-1" offset="0.6599%" stop-color="#503c70"/><stop id="egFHDsaiSmT3-fill-2" offset="32%" stop-color="#311f50"/><stop id="egFHDsaiSmT3-fill-3" offset="100%" stop-color="#503e6c"/></linearGradient></defs><g transform="matrix(1.65454 0 0 1.601619-156.339713-62.305534)"><rect width="329.810806" height="46.020112" rx="0" ry="0" transform="matrix(39.4102 0 0 245.69524-6370.872397 174.32192)" fill="url(#egFHDsaiSmT3-fill)" stroke-width="0"/><g transform="matrix(1.019925 0.016146-.015828 0.999875-2.144868-3.688416)"><path d="M72.021476,150h111.982274L129.802284,62.382819L72.021476,150Z" transform="matrix(.897909 0 0 0.641078 96.56077 94.488702)" fill="#1f192a" stroke-width="0.6"/><path d="M72.021476,150h111.982274L129.802284,62.382819L72.021476,150Z" transform="matrix(.897909 0 0 0.641078 4371.321673 17.907675)" fill="#1f192a" stroke-width="0.6"/><path d="M72.021476,150h111.982274L129.802284,62.382819L72.021476,150Z" transform="matrix(.897909 0 0 0.641078-4177.074043 185.378658)" fill="#1f192a" stroke-width="0.6"/><path d="M72.021476,150h111.982274L129.802284,62.382819L72.021476,150Z" transform="matrix(.897909 0 0 0.641078 1530.714833 64.817161)" fill="#1f192a" stroke-width="0.6"/><path d="M72.021476,150h111.982274L129.802284,62.382819L72.021476,150Z" transform="matrix(.897909 0 0 0.641078 5805.475736-11.763866)" fill="#1f192a" stroke-width="0.6"/><path d="M72.021476,150h111.982274L129.802284,62.382819L72.021476,150Z" transform="matrix(.897909 0 0 0.641078-2742.91998 155.707117)" fill="#1f192a" stroke-width="0.6"/><path d="M72.021476,150h111.982274L129.802284,62.382819L72.021476,150Z" transform="matrix(.897909 0 0 0.641078-1312.675554 123.994252)" fill="#1f192a" stroke-width="0.6"/><path d="M72.021476,150h111.982274L129.802284,62.382819L72.021476,150Z" transform="matrix(.897909 0 0 0.641078 2962.085349 47.413225)" fill="#1f192a" stroke-width="0.6"/><path d="M72.021476,150h111.982274L129.802284,62.382819L72.021476,150Z" transform="matrix(.897909 0 0 0.641078-5586.310367 214.884208)" fill="#1f192a" stroke-width="0.6"/><path d="M72.021476,150h111.982274L129.802284,62.382819L72.021476,150Z" transform="matrix(.897909 0 0 0.641078 580.209642 85.58324)" fill="#1f192a" stroke-width="0.6"/><path d="M72.021476,150h111.982274L129.802284,62.382819L72.021476,150Z" transform="matrix(.897909 0 0 0.641078 4854.970545 9.002213)" fill="#1f192a" stroke-width="0.6"/><path d="M72.021476,150h111.982274L129.802284,62.382819L72.021476,150Z" transform="matrix(.897909 0 0 0.641078-3693.425171 176.473196)" fill="#1f192a" stroke-width="0.6"/><path d="M72.021476,150h111.982274L129.802284,62.382819L72.021476,150Z" transform="matrix(.897909 0 0 0.641078 2014.363705 55.911699)" fill="#1f192a" stroke-width="0.6"/><path d="M72.021476,150h111.982274L129.802284,62.382819L72.021476,150Z" transform="matrix(.897909 0 0 0.641078 6289.124608-20.669328)" fill="#1f192a" stroke-width="0.6"/><path d="M72.021476,150h111.982274L129.802284,62.382819L72.021476,150Z" transform="matrix(.897909 0 0 0.641078-2259.271108 146.801655)" fill="#1f192a" stroke-width="0.6"/><path d="M72.021476,150h111.982274L129.802284,62.382819L72.021476,150Z" transform="matrix(.897909 0 0 0.641078-829.026682 115.08879)" fill="#1f192a" stroke-width="0.6"/><path d="M72.021476,150h111.982274L129.802284,62.382819L72.021476,150Z" transform="matrix(.897909 0 0 0.641078 3445.734221 38.507763)" fill="#1f192a" stroke-width="0.6"/><path d="M72.021476,150h111.982274L129.802284,62.382819L72.021476,150Z" transform="matrix(.897909 0 0 0.641078-5102.661495 205.978746)" fill="#1f192a" stroke-width="0.6"/><path d="M72.021476,150h111.982274L129.802284,62.382819L72.021476,150Z" transform="matrix(.897909 0 0 0.641078-369.476651 100.474087)" fill="#1f192a" stroke-width="0.6"/><path d="M72.021476,150h111.982274L129.802284,62.382819L72.021476,150Z" transform="matrix(.897909 0 0 0.641078 3905.284252 23.89306)" fill="#1f192a" stroke-width="0.6"/><path d="M72.021476,150h111.982274L129.802284,62.382819L72.021476,150Z" transform="matrix(.897909 0 0 0.641078-4643.111464 191.364043)" fill="#1f192a" stroke-width="0.6"/><path d="M72.021476,150h111.982274L129.802284,62.382819L72.021476,150Z" transform="matrix(.897909 0 0 0.641078 1064.677412 70.802546)" fill="#1f192a" stroke-width="0.6"/><path d="M72.021476,150h111.982274L129.802284,62.382819L72.021476,150Z" transform="matrix(.897909 0 0 0.641078 5339.438315-5.778481)" fill="#1f192a" stroke-width="0.6"/><path d="M72.021476,150h111.982274L129.802284,62.382819L72.021476,150Z" transform="matrix(.897909 0 0 0.641078-3208.957401 161.692502)" fill="#1f192a" stroke-width="0.6"/><path d="M72.021476,150h111.982274L129.802284,62.382819L72.021476,150Z" transform="matrix(.897909 0 0 0.641078-1778.712975 129.979637)" fill="#1f192a" stroke-width="0.6"/><path d="M72.021476,150h111.982274L129.802284,62.382819L72.021476,150Z" transform="matrix(.897909 0 0 0.641078 2496.047928 53.39861)" fill="#1f192a" stroke-width="0.6"/><path d="M72.021476,150h111.982274L129.802284,62.382819L72.021476,150Z" transform="matrix(.897909 0 0 0.641078-6052.347788 220.869593)" fill="#1f192a" stroke-width="0.6"/><path d="M72.021476,150h111.982274L129.802284,62.382819L72.021476,150Z" transform="matrix(.897909 0 0 0.641078 186.498972 81.923024)" fill="#1f192a" stroke-width="0.6"/><path d="M72.021476,150h111.982274L129.802284,62.382819L72.021476,150Z" transform="matrix(.897909 0 0 0.641078 4461.259875 5.341997)" fill="#1f192a" stroke-width="0.6"/><path d="M72.021476,150h111.982274L129.802284,62.382819L72.021476,150Z" transform="matrix(.897909 0 0 0.641078-4087.135841 172.81298)" fill="#1f192a" stroke-width="0.6"/><path d="M72.021476,150h111.982274L129.802284,62.382819L72.021476,150Z" transform="matrix(.897909 0 0 0.641078 1620.653035 52.251483)" fill="#1f192a" stroke-width="0.6"/><path d="M72.021476,150h111.982274L129.802284,62.382819L72.021476,150Z" transform="matrix(.897909 0 0 0.641078 5895.413938-24.329544)" fill="#1f192a" stroke-width="0.6"/><path d="M72.021476,150h111.982274L129.802284,62.382819L72.021476,150Z" transform="matrix(.897909 0 0 0.641078-2652.981778 143.141439)" fill="#1f192a" stroke-width="0.6"/><path d="M72.021476,150h111.982274L129.802284,62.382819L72.021476,150Z" transform="matrix(.897909 0 0 0.641078-1222.737352 111.428574)" fill="#1f192a" stroke-width="0.6"/><path d="M72.021476,150h111.982274L129.802284,62.382819L72.021476,150Z" transform="matrix(.897909 0 0 0.641078 3052.023551 34.847547)" fill="#1f192a" stroke-width="0.6"/><path d="M72.021476,150h111.982274L129.802284,62.382819L72.021476,150Z" transform="matrix(.897909 0 0 0.641078-5496.372165 202.31853)" fill="#1f192a" stroke-width="0.6"/><path d="M72.021476,150h111.982274L129.802284,62.382819L72.021476,150Z" transform="matrix(.897909 0 0 0.641078 670.147844 73.017562)" fill="#1f192a" stroke-width="0.6"/><path d="M72.021476,150h111.982274L129.802284,62.382819L72.021476,150Z" transform="matrix(.897909 0 0 0.641078 4944.908747-3.563465)" fill="#1f192a" stroke-width="0.6"/><path d="M72.021476,150h111.982274L129.802284,62.382819L72.021476,150Z" transform="matrix(.897909 0 0 0.641078-3603.486969 163.907518)" fill="#1f192a" stroke-width="0.6"/><path d="M72.021476,150h111.982274L129.802284,62.382819L72.021476,150Z" transform="matrix(.897909 0 0 0.641078 2104.301907 43.346021)" fill="#1f192a" stroke-width="0.6"/><path d="M72.021476,150h111.982274L129.802284,62.382819L72.021476,150Z" transform="matrix(.897909 0 0 0.641078 6379.06281-33.235006)" fill="#1f192a" stroke-width="0.6"/><path d="M72.021476,150h111.982274L129.802284,62.382819L72.021476,150Z" transform="matrix(.897909 0 0 0.641078-2169.332906 134.235977)" fill="#1f192a" stroke-width="0.6"/><path d="M72.021476,150h111.982274L129.802284,62.382819L72.021476,150Z" transform="matrix(.897909 0 0 0.641078-739.08848 102.523112)" fill="#1f192a" stroke-width="0.6"/><path d="M72.021476,150h111.982274L129.802284,62.382819L72.021476,150Z" transform="matrix(.897909 0 0 0.641078 3535.672423 25.942085)" fill="#1f192a" stroke-width="0.6"/><path d="M72.021476,150h111.982274L129.802284,62.382819L72.021476,150Z" transform="matrix(.897909 0 0 0.641078-5012.723293 193.413068)" fill="#1f192a" stroke-width="0.6"/><path d="M72.021476,150h111.982274L129.802284,62.382819L72.021476,150Z" transform="matrix(.897909 0 0 0.641078-279.538449 87.908409)" fill="#1f192a" stroke-width="0.6"/><path d="M72.021476,150h111.982274L129.802284,62.382819L72.021476,150Z" transform="matrix(.897909 0 0 0.641078 3995.222454 11.327382)" fill="#1f192a" stroke-width="0.6"/><path d="M72.021476,150h111.982274L129.802284,62.382819L72.021476,150Z" transform="matrix(.897909 0 0 0.641078-4553.173262 178.798365)" fill="#1f192a" stroke-width="0.6"/><path d="M72.021476,150h111.982274L129.802284,62.382819L72.021476,150Z" transform="matrix(.897909 0 0 0.641078 1154.615614 58.236868)" fill="#1f192a" stroke-width="0.6"/><path d="M72.021476,150h111.982274L129.802284,62.382819L72.021476,150Z" transform="matrix(.897909 0 0 0.641078 5429.376517-18.344159)" fill="#1f192a" stroke-width="0.6"/><path d="M72.021476,150h111.982274L129.802284,62.382819L72.021476,150Z" transform="matrix(.897909 0 0 0.641078-3119.019199 149.126824)" fill="#1f192a" stroke-width="0.6"/><path d="M72.021476,150h111.982274L129.802284,62.382819L72.021476,150Z" transform="matrix(.897909 0 0 0.641078-1688.774773 117.413959)" fill="#1f192a" stroke-width="0.6"/><path d="M72.021476,150h111.982274L129.802284,62.382819L72.021476,150Z" transform="matrix(.897909 0 0 0.641078 2585.98613 40.832932)" fill="#1f192a" stroke-width="0.6"/><path d="M72.021476,150h111.982274L129.802284,62.382819L72.021476,150Z" transform="matrix(.897909 0 0 0.641078-5962.409586 208.303915)" fill="#1f192a" stroke-width="0.6"/><path d="M72.021476,150h111.982274L129.802284,62.382819L72.021476,150Z" transform="matrix(.897909 0 0 0.806253-10.819492 53.427149)" fill="#1f192a" stroke-width="0.6"/><path d="M72.021476,150h111.982274L129.802284,62.382819L72.021476,150Z" transform="matrix(.897909 0 0 0.806253 4263.941411-23.153878)" fill="#1f192a" stroke-width="0.6"/><path d="M72.021476,150h111.982274L129.802284,62.382819L72.021476,150Z" transform="matrix(.897909 0 0 0.806253-4284.454305 144.317105)" fill="#1f192a" stroke-width="0.6"/><path d="M72.021476,150h111.982274L129.802284,62.382819L72.021476,150Z" transform="matrix(.897909 0 0 0.806253 1423.334571 23.755608)" fill="#1f192a" stroke-width="0.6"/><path d="M72.021476,150h111.982274L129.802284,62.382819L72.021476,150Z" transform="matrix(.897909 0 0 0.806253 5698.095474-52.825419)" fill="#1f192a" stroke-width="0.6"/><path d="M72.021476,150h111.982274L129.802284,62.382819L72.021476,150Z" transform="matrix(.897909 0 0 0.806253-2850.300242 114.645564)" fill="#1f192a" stroke-width="0.6"/><path d="M72.021476,150h111.982274L129.802284,62.382819L72.021476,150Z" transform="matrix(.897909 0 0 0.806253-1420.055816 82.932699)" fill="#1f192a" stroke-width="0.6"/><path d="M72.021476,150h111.982274L129.802284,62.382819L72.021476,150Z" transform="matrix(.897909 0 0 0.806253 2854.705087 6.351672)" fill="#1f192a" stroke-width="0.6"/><path d="M72.021476,150h111.982274L129.802284,62.382819L72.021476,150Z" transform="matrix(.897909 0 0 0.806253-5693.690629 173.822655)" fill="#1f192a" stroke-width="0.6"/><path d="M72.021476,150h111.982274L129.802284,62.382819L72.021476,150Z" transform="matrix(.897909 0 0 0.806253 472.82938 44.521687)" fill="#1f192a" stroke-width="0.6"/><path d="M72.021476,150h111.982274L129.802284,62.382819L72.021476,150Z" transform="matrix(.897909 0 0 0.806253 4747.590283-32.05934)" fill="#1f192a" stroke-width="0.6"/><path d="M72.021476,150h111.982274L129.802284,62.382819L72.021476,150Z" transform="matrix(.897909 0 0 0.806253-3800.805433 135.411643)" fill="#1f192a" stroke-width="0.6"/><path d="M72.021476,150h111.982274L129.802284,62.382819L72.021476,150Z" transform="matrix(.897909 0 0 0.806253 1906.983443 14.850146)" fill="#1f192a" stroke-width="0.6"/><path d="M72.021476,150h111.982274L129.802284,62.382819L72.021476,150Z" transform="matrix(.897909 0 0 0.806253 6181.744346-61.730881)" fill="#1f192a" stroke-width="0.6"/><path d="M72.021476,150h111.982274L129.802284,62.382819L72.021476,150Z" transform="matrix(.897909 0 0 0.806253-2366.65137 105.740102)" fill="#1f192a" stroke-width="0.6"/><path d="M72.021476,150h111.982274L129.802284,62.382819L72.021476,150Z" transform="matrix(.897909 0 0 0.806253-936.406944 74.027237)" fill="#1f192a" stroke-width="0.6"/><path d="M72.021476,150h111.982274L129.802284,62.382819L72.021476,150Z" transform="matrix(.897909 0 0 0.806253 3338.353959-2.55379)" fill="#1f192a" stroke-width="0.6"/><path d="M72.021476,150h111.982274L129.802284,62.382819L72.021476,150Z" transform="matrix(.897909 0 0 0.806253-5210.041757 164.917193)" fill="#1f192a" stroke-width="0.6"/><path d="M72.021476,150h111.982274L129.802284,62.382819L72.021476,150Z" transform="matrix(.897909 0 0 0.806253-476.856913 59.412534)" fill="#1f192a" stroke-width="0.6"/><path d="M72.021476,150h111.982274L129.802284,62.382819L72.021476,150Z" transform="matrix(.897909 0 0 0.806253 3797.90399-17.168493)" fill="#1f192a" stroke-width="0.6"/><path d="M72.021476,150h111.982274L129.802284,62.382819L72.021476,150Z" transform="matrix(.897909 0 0 0.806253-4750.491726 150.30249)" fill="#1f192a" stroke-width="0.6"/><path d="M72.021476,150h111.982274L129.802284,62.382819L72.021476,150Z" transform="matrix(.897909 0 0 0.806253 957.29715 29.740993)" fill="#1f192a" stroke-width="0.6"/><path d="M72.021476,150h111.982274L129.802284,62.382819L72.021476,150Z" transform="matrix(.897909 0 0 0.806253 5232.058053-46.840034)" fill="#1f192a" stroke-width="0.6"/><path d="M72.021476,150h111.982274L129.802284,62.382819L72.021476,150Z" transform="matrix(.897909 0 0 0.806253-3316.337663 120.630949)" fill="#1f192a" stroke-width="0.6"/><path d="M72.021476,150h111.982274L129.802284,62.382819L72.021476,150Z" transform="matrix(.897909 0 0 0.806253-1886.093237 88.918084)" fill="#1f192a" stroke-width="0.6"/><path d="M72.021476,150h111.982274L129.802284,62.382819L72.021476,150Z" transform="matrix(.897909 0 0 0.806253 2388.667666 12.337057)" fill="#1f192a" stroke-width="0.6"/><path d="M72.021476,150h111.982274L129.802284,62.382819L72.021476,150Z" transform="matrix(.897909 0 0 0.806253-6159.72805 179.80804)" fill="#1f192a" stroke-width="0.6"/><path d="M72.021476,150h111.982274L129.802284,62.382819L72.021476,150Z" transform="matrix(1.288614 0 0 1.451711-10.559715-9.272576)" fill="#312942" stroke-width="0.6"/><path d="M72.021476,150h111.982274L129.802284,62.382819L72.021476,150Z" transform="matrix(1.288614 0 0 1.451711 4264.201188-85.853603)" fill="#312942" stroke-width="0.6"/><path d="M72.021476,150h111.982274L129.802284,62.382819L72.021476,150Z" transform="matrix(1.288614 0 0 1.451711-4284.194528 81.61738)" fill="#312942" stroke-width="0.6"/><path d="M72.021476,150h111.982274L129.802284,62.382819L72.021476,150Z" transform="matrix(1.288614 0 0 1.451711 1423.594348-38.944117)" fill="#312942" stroke-width="0.6"/><path d="M72.021476,150h111.982274L129.802284,62.382819L72.021476,150Z" transform="matrix(1.288614 0 0 1.451711 5698.355251-115.525144)" fill="#312942" stroke-width="0.6"/><path d="M72.021476,150h111.982274L129.802284,62.382819L72.021476,150Z" transform="matrix(1.288614 0 0 1.451711-2850.040465 51.945839)" fill="#312942" stroke-width="0.6"/><path d="M72.021476,150h111.982274L129.802284,62.382819L72.021476,150Z" transform="matrix(1.288614 0 0 1.451711-1419.796039 20.232974)" fill="#312942" stroke-width="0.6"/><path d="M72.021476,150h111.982274L129.802284,62.382819L72.021476,150Z" transform="matrix(1.288614 0 0 1.451711 2854.964864-56.348053)" fill="#312942" stroke-width="0.6"/><path d="M72.021476,150h111.982274L129.802284,62.382819L72.021476,150Z" transform="matrix(1.288614 0 0 1.451711-5693.430852 111.12293)" fill="#312942" stroke-width="0.6"/><path d="M72.021476,150h111.982274L129.802284,62.382819L72.021476,150Z" transform="matrix(1.288614 0 0 1.451711 473.089157-18.178038)" fill="#312942" stroke-width="0.6"/><path d="M72.021476,150h111.982274L129.802284,62.382819L72.021476,150Z" transform="matrix(1.288614 0 0 1.451711 4747.85006-94.759065)" fill="#312942" stroke-width="0.6"/><path d="M72.021476,150h111.982274L129.802284,62.382819L72.021476,150Z" transform="matrix(1.288614 0 0 1.451711-3800.545656 72.711918)" fill="#312942" stroke-width="0.6"/><path d="M72.021476,150h111.982274L129.802284,62.382819L72.021476,150Z" transform="matrix(1.288614 0 0 1.451711 1907.24322-47.849579)" fill="#312942" stroke-width="0.6"/><path d="M72.021476,150h111.982274L129.802284,62.382819L72.021476,150Z" transform="matrix(1.288614 0 0 1.451711 6182.004123-124.430606)" fill="#312942" stroke-width="0.6"/><path d="M72.021476,150h111.982274L129.802284,62.382819L72.021476,150Z" transform="matrix(1.288614 0 0 1.451711-2366.391593 43.040377)" fill="#312942" stroke-width="0.6"/><path d="M72.021476,150h111.982274L129.802284,62.382819L72.021476,150Z" transform="matrix(1.288614 0 0 1.451711-936.147167 11.327512)" fill="#312942" stroke-width="0.6"/><path d="M72.021476,150h111.982274L129.802284,62.382819L72.021476,150Z" transform="matrix(1.288614 0 0 1.451711 3338.613736-65.253515)" fill="#312942" stroke-width="0.6"/><path d="M72.021476,150h111.982274L129.802284,62.382819L72.021476,150Z" transform="matrix(1.288614 0 0 1.451711-5209.78198 102.217468)" fill="#312942" stroke-width="0.6"/><path d="M72.021476,150h111.982274L129.802284,62.382819L72.021476,150Z" transform="matrix(1.288614 0 0 1.451711-476.597136-3.287191)" fill="#312942" stroke-width="0.6"/><path d="M72.021476,150h111.982274L129.802284,62.382819L72.021476,150Z" transform="matrix(1.288614 0 0 1.451711 3798.163767-79.868218)" fill="#312942" stroke-width="0.6"/><path d="M72.021476,150h111.982274L129.802284,62.382819L72.021476,150Z" transform="matrix(1.288614 0 0 1.451711-4750.231949 87.602765)" fill="#312942" stroke-width="0.6"/><path d="M72.021476,150h111.982274L129.802284,62.382819L72.021476,150Z" transform="matrix(1.288614 0 0 1.451711 957.556927-32.958732)" fill="#312942" stroke-width="0.6"/><path d="M72.021476,150h111.982274L129.802284,62.382819L72.021476,150Z" transform="matrix(1.288614 0 0 1.451711 5232.31783-109.539759)" fill="#312942" stroke-width="0.6"/><path d="M72.021476,150h111.982274L129.802284,62.382819L72.021476,150Z" transform="matrix(1.288614 0 0 1.451711-3316.077886 57.931224)" fill="#312942" stroke-width="0.6"/><path d="M72.021476,150h111.982274L129.802284,62.382819L72.021476,150Z" transform="matrix(1.288614 0 0 1.451711-1885.83346 26.218359)" fill="#312942" stroke-width="0.6"/><path d="M72.021476,150h111.982274L129.802284,62.382819L72.021476,150Z" transform="matrix(1.288614 0 0 1.451711 2388.927443-50.362668)" fill="#312942" stroke-width="0.6"/><path d="M72.021476,150h111.982274L129.802284,62.382819L72.021476,150Z" transform="matrix(1.288614 0 0 1.451711-6159.468273 117.108315)" fill="#312942" stroke-width="0.6"/><g transform="matrix(.82151 0 0 1 64.231512 0)"><path d="M72.021476,150h111.982274L129.802284,62.382819L72.021476,150Z" transform="matrix(1.897802 0 0 1.520024 116.917944-19.519525)" fill="#312942" stroke-width="0.6"/></g><g transform="matrix(.82151 0 0 1 4338.992415-76.581027)"><path d="M72.021476,150h111.982274L129.802284,62.382819L72.021476,150Z" transform="matrix(1.897802 0 0 1.520024 116.917944-19.519525)" fill="#312942" stroke-width="0.6"/></g><g transform="matrix(.82151 0 0 1-4209.403301 90.889956)"><path d="M72.021476,150h111.982274L129.802284,62.382819L72.021476,150Z" transform="matrix(1.897802 0 0 1.520024 116.917944-19.519525)" fill="#312942" stroke-width="0.6"/></g><g transform="matrix(.82151 0 0 1 1498.385575-29.671541)"><path d="M72.021476,150h111.982274L129.802284,62.382819L72.021476,150Z" transform="matrix(1.897802 0 0 1.520024 116.917944-19.519525)" fill="#312942" stroke-width="0.6"/></g><g transform="matrix(.82151 0 0 1 5773.146478-106.252568)"><path d="M72.021476,150h111.982274L129.802284,62.382819L72.021476,150Z" transform="matrix(1.897802 0 0 1.520024 116.917944-19.519525)" fill="#312942" stroke-width="0.6"/></g><g transform="matrix(.82151 0 0 1-2775.249238 61.218415)"><path d="M72.021476,150h111.982274L129.802284,62.382819L72.021476,150Z" transform="matrix(1.897802 0 0 1.520024 116.917944-19.519525)" fill="#312942" stroke-width="0.6"/></g><g transform="matrix(.82151 0 0 1-1345.004812 29.50555)"><path d="M72.021476,150h111.982274L129.802284,62.382819L72.021476,150Z" transform="matrix(1.897802 0 0 1.520024 116.917944-19.519525)" fill="#312942" stroke-width="0.6"/></g><g transform="matrix(.82151 0 0 1 2929.756091-47.075477)"><path d="M72.021476,150h111.982274L129.802284,62.382819L72.021476,150Z" transform="matrix(1.897802 0 0 1.520024 116.917944-19.519525)" fill="#312942" stroke-width="0.6"/></g><g transform="matrix(.82151 0 0 1-5618.639625 120.395506)"><path d="M72.021476,150h111.982274L129.802284,62.382819L72.021476,150Z" transform="matrix(1.897802 0 0 1.520024 116.917944-19.519525)" fill="#312942" stroke-width="0.6"/></g><g transform="matrix(.82151 0 0 1 547.880384-8.905462)"><path d="M72.021476,150h111.982274L129.802284,62.382819L72.021476,150Z" transform="matrix(1.897802 0 0 1.520024 116.917944-19.519525)" fill="#312942" stroke-width="0.6"/></g><g transform="matrix(.82151 0 0 1 4822.641287-85.486489)"><path d="M72.021476,150h111.982274L129.802284,62.382819L72.021476,150Z" transform="matrix(1.897802 0 0 1.520024 116.917944-19.519525)" fill="#312942" stroke-width="0.6"/></g><g transform="matrix(.82151 0 0 1-3725.754429 81.984494)"><path d="M72.021476,150h111.982274L129.802284,62.382819L72.021476,150Z" transform="matrix(1.897802 0 0 1.520024 116.917944-19.519525)" fill="#312942" stroke-width="0.6"/></g><g transform="matrix(.82151 0 0 1 1982.034447-38.577003)"><path d="M72.021476,150h111.982274L129.802284,62.382819L72.021476,150Z" transform="matrix(1.897802 0 0 1.520024 116.917944-19.519525)" fill="#312942" stroke-width="0.6"/></g><g transform="matrix(.82151 0 0 1 6256.79535-115.15803)"><path d="M72.021476,150h111.982274L129.802284,62.382819L72.021476,150Z" transform="matrix(1.897802 0 0 1.520024 116.917944-19.519525)" fill="#312942" stroke-width="0.6"/></g><g transform="matrix(.82151 0 0 1-2291.600366 52.312953)"><path d="M72.021476,150h111.982274L129.802284,62.382819L72.021476,150Z" transform="matrix(1.897802 0 0 1.520024 116.917944-19.519525)" fill="#312942" stroke-width="0.6"/></g><g transform="matrix(.82151 0 0 1-861.35594 20.600088)"><path d="M72.021476,150h111.982274L129.802284,62.382819L72.021476,150Z" transform="matrix(1.897802 0 0 1.520024 116.917944-19.519525)" fill="#312942" stroke-width="0.6"/></g><g transform="matrix(.82151 0 0 1 3413.404963-55.980939)"><path d="M72.021476,150h111.982274L129.802284,62.382819L72.021476,150Z" transform="matrix(1.897802 0 0 1.520024 116.917944-19.519525)" fill="#312942" stroke-width="0.6"/></g><g transform="matrix(.82151 0 0 1-5134.990753 111.490044)"><path d="M72.021476,150h111.982274L129.802284,62.382819L72.021476,150Z" transform="matrix(1.897802 0 0 1.520024 116.917944-19.519525)" fill="#312942" stroke-width="0.6"/></g><g transform="matrix(.82151 0 0 1-401.805909 5.985385)"><path d="M72.021476,150h111.982274L129.802284,62.382819L72.021476,150Z" transform="matrix(1.897802 0 0 1.520024 116.917944-19.519525)" fill="#312942" stroke-width="0.6"/></g><g transform="matrix(.82151 0 0 1 3872.954994-70.595642)"><path d="M72.021476,150h111.982274L129.802284,62.382819L72.021476,150Z" transform="matrix(1.897802 0 0 1.520024 116.917944-19.519525)" fill="#312942" stroke-width="0.6"/></g><g transform="matrix(.82151 0 0 1-4675.440722 96.875341)"><path d="M72.021476,150h111.982274L129.802284,62.382819L72.021476,150Z" transform="matrix(1.897802 0 0 1.520024 116.917944-19.519525)" fill="#312942" stroke-width="0.6"/></g><g transform="matrix(.82151 0 0 1 1032.348154-23.686156)"><path d="M72.021476,150h111.982274L129.802284,62.382819L72.021476,150Z" transform="matrix(1.897802 0 0 1.520024 116.917944-19.519525)" fill="#312942" stroke-width="0.6"/></g><g transform="matrix(.82151 0 0 1 5307.109057-100.267183)"><path d="M72.021476,150h111.982274L129.802284,62.382819L72.021476,150Z" transform="matrix(1.897802 0 0 1.520024 116.917944-19.519525)" fill="#312942" stroke-width="0.6"/></g><g transform="matrix(.82151 0 0 1-3241.286659 67.2038)"><path d="M72.021476,150h111.982274L129.802284,62.382819L72.021476,150Z" transform="matrix(1.897802 0 0 1.520024 116.917944-19.519525)" fill="#312942" stroke-width="0.6"/></g><g transform="matrix(.82151 0 0 1-1811.042233 35.490935)"><path d="M72.021476,150h111.982274L129.802284,62.382819L72.021476,150Z" transform="matrix(1.897802 0 0 1.520024 116.917944-19.519525)" fill="#312942" stroke-width="0.6"/></g><g transform="matrix(.82151 0 0 1 2463.71867-41.090092)"><path d="M72.021476,150h111.982274L129.802284,62.382819L72.021476,150Z" transform="matrix(1.897802 0 0 1.520024 116.917944-19.519525)" fill="#312942" stroke-width="0.6"/></g><g transform="matrix(.82151 0 0 1-6084.677046 126.380891)"><path d="M72.021476,150h111.982274L129.802284,62.382819L72.021476,150Z" transform="matrix(1.897802 0 0 1.520024 116.917944-19.519525)" fill="#312942" stroke-width="0.6"/></g><path d="M72.021476,150h111.982274L129.802284,62.382819L72.021476,150Z" transform="matrix(1.288614 0 0 1.451711 96.820547-4.159237)" fill="#262032" stroke-width="0.6"/><path d="M72.021476,150h111.982274L129.802284,62.382819L72.021476,150Z" transform="matrix(1.288614 0 0 1.451711 4371.58145-80.740264)" fill="#262032" stroke-width="0.6"/><path d="M72.021476,150h111.982274L129.802284,62.382819L72.021476,150Z" transform="matrix(1.288614 0 0 1.451711-4176.814266 86.730719)" fill="#262032" stroke-width="0.6"/><path d="M72.021476,150h111.982274L129.802284,62.382819L72.021476,150Z" transform="matrix(1.288614 0 0 1.451711 1530.97461-33.830778)" fill="#262032" stroke-width="0.6"/><path d="M72.021476,150h111.982274L129.802284,62.382819L72.021476,150Z" transform="matrix(1.288614 0 0 1.451711 5805.735513-110.411805)" fill="#262032" stroke-width="0.6"/><path d="M72.021476,150h111.982274L129.802284,62.382819L72.021476,150Z" transform="matrix(1.288614 0 0 1.451711-2742.660203 57.059178)" fill="#262032" stroke-width="0.6"/><path d="M72.021476,150h111.982274L129.802284,62.382819L72.021476,150Z" transform="matrix(1.288614 0 0 1.451711-1312.415777 25.346313)" fill="#262032" stroke-width="0.6"/><path d="M72.021476,150h111.982274L129.802284,62.382819L72.021476,150Z" transform="matrix(1.288614 0 0 1.451711 2962.345126-51.234714)" fill="#262032" stroke-width="0.6"/><path d="M72.021476,150h111.982274L129.802284,62.382819L72.021476,150Z" transform="matrix(1.288614 0 0 1.451711-5586.05059 116.236269)" fill="#262032" stroke-width="0.6"/><path d="M72.021476,150h111.982274L129.802284,62.382819L72.021476,150Z" transform="matrix(1.288614 0 0 1.451711 580.469419-13.064699)" fill="#262032" stroke-width="0.6"/><path d="M72.021476,150h111.982274L129.802284,62.382819L72.021476,150Z" transform="matrix(1.288614 0 0 1.451711 4855.230322-89.645726)" fill="#262032" stroke-width="0.6"/><path d="M72.021476,150h111.982274L129.802284,62.382819L72.021476,150Z" transform="matrix(1.288614 0 0 1.451711-3693.165394 77.825257)" fill="#262032" stroke-width="0.6"/><path d="M72.021476,150h111.982274L129.802284,62.382819L72.021476,150Z" transform="matrix(1.288614 0 0 1.451711 2014.623482-42.73624)" fill="#262032" stroke-width="0.6"/><path d="M72.021476,150h111.982274L129.802284,62.382819L72.021476,150Z" transform="matrix(1.288614 0 0 1.451711 6289.384385-119.317267)" fill="#262032" stroke-width="0.6"/><path d="M72.021476,150h111.982274L129.802284,62.382819L72.021476,150Z" transform="matrix(1.288614 0 0 1.451711-2259.011331 48.153716)" fill="#262032" stroke-width="0.6"/><path d="M72.021476,150h111.982274L129.802284,62.382819L72.021476,150Z" transform="matrix(1.288614 0 0 1.451711-828.766905 16.440851)" fill="#262032" stroke-width="0.6"/><path d="M72.021476,150h111.982274L129.802284,62.382819L72.021476,150Z" transform="matrix(1.288614 0 0 1.451711 3445.993998-60.140176)" fill="#262032" stroke-width="0.6"/><path d="M72.021476,150h111.982274L129.802284,62.382819L72.021476,150Z" transform="matrix(1.288614 0 0 1.451711-5102.401718 107.330807)" fill="#262032" stroke-width="0.6"/><path d="M72.021476,150h111.982274L129.802284,62.382819L72.021476,150Z" transform="matrix(1.288614 0 0 1.451711-369.216874 1.826148)" fill="#262032" stroke-width="0.6"/><path d="M72.021476,150h111.982274L129.802284,62.382819L72.021476,150Z" transform="matrix(1.288614 0 0 1.451711 3905.544029-74.754879)" fill="#262032" stroke-width="0.6"/><path d="M72.021476,150h111.982274L129.802284,62.382819L72.021476,150Z" transform="matrix(1.288614 0 0 1.451711-4642.851687 92.716104)" fill="#262032" stroke-width="0.6"/><path d="M72.021476,150h111.982274L129.802284,62.382819L72.021476,150Z" transform="matrix(1.288614 0 0 1.451711 1064.937189-27.845393)" fill="#262032" stroke-width="0.6"/><path d="M72.021476,150h111.982274L129.802284,62.382819L72.021476,150Z" transform="matrix(1.288614 0 0 1.451711 5339.698092-104.42642)" fill="#262032" stroke-width="0.6"/><path d="M72.021476,150h111.982274L129.802284,62.382819L72.021476,150Z" transform="matrix(1.288614 0 0 1.451711-3208.697624 63.044563)" fill="#262032" stroke-width="0.6"/><path d="M72.021476,150h111.982274L129.802284,62.382819L72.021476,150Z" transform="matrix(1.288614 0 0 1.451711-1778.453198 31.331698)" fill="#262032" stroke-width="0.6"/><path d="M72.021476,150h111.982274L129.802284,62.382819L72.021476,150Z" transform="matrix(1.288614 0 0 1.451711 2496.307705-45.249329)" fill="#262032" stroke-width="0.6"/><path d="M72.021476,150h111.982274L129.802284,62.382819L72.021476,150Z" transform="matrix(1.288614 0 0 1.451711-6052.088011 122.221654)" fill="#262032" stroke-width="0.6"/><path d="M72.021476,150h111.982274L129.802284,62.382819L72.021476,150Z" transform="matrix(1.288614 0 0 1.451711 258.909713-9.272576)" fill="#262032" stroke-width="0.6"/><path d="M72.021476,150h111.982274L129.802284,62.382819L72.021476,150Z" transform="matrix(1.288614 0 0 1.451711 4533.670616-85.853603)" fill="#262032" stroke-width="0.6"/><path d="M72.021476,150h111.982274L129.802284,62.382819L72.021476,150Z" transform="matrix(1.288614 0 0 1.451711-4014.7251 81.61738)" fill="#262032" stroke-width="0.6"/><path d="M72.021476,150h111.982274L129.802284,62.382819L72.021476,150Z" transform="matrix(1.288614 0 0 1.451711 1693.063776-38.944117)" fill="#262032" stroke-width="0.6"/><path d="M72.021476,150h111.982274L129.802284,62.382819L72.021476,150Z" transform="matrix(1.288614 0 0 1.451711 5967.824679-115.525144)" fill="#262032" stroke-width="0.6"/><path d="M72.021476,150h111.982274L129.802284,62.382819L72.021476,150Z" transform="matrix(1.288614 0 0 1.451711-2580.571037 51.945839)" fill="#262032" stroke-width="0.6"/><path d="M72.021476,150h111.982274L129.802284,62.382819L72.021476,150Z" transform="matrix(1.288614 0 0 1.451711-1150.326611 20.232974)" fill="#262032" stroke-width="0.6"/><path d="M72.021476,150h111.982274L129.802284,62.382819L72.021476,150Z" transform="matrix(1.288614 0 0 1.451711 3124.434292-56.348053)" fill="#262032" stroke-width="0.6"/><path d="M72.021476,150h111.982274L129.802284,62.382819L72.021476,150Z" transform="matrix(1.288614 0 0 1.451711-5423.961424 111.12293)" fill="#262032" stroke-width="0.6"/><path d="M72.021476,150h111.982274L129.802284,62.382819L72.021476,150Z" transform="matrix(1.288614 0 0 1.451711 742.558585-18.178038)" fill="#262032" stroke-width="0.6"/><path d="M72.021476,150h111.982274L129.802284,62.382819L72.021476,150Z" transform="matrix(1.288614 0 0 1.451711 5017.319488-94.759065)" fill="#262032" stroke-width="0.6"/><path d="M72.021476,150h111.982274L129.802284,62.382819L72.021476,150Z" transform="matrix(1.288614 0 0 1.451711-3531.076228 72.711918)" fill="#262032" stroke-width="0.6"/><path d="M72.021476,150h111.982274L129.802284,62.382819L72.021476,150Z" transform="matrix(1.288614 0 0 1.451711 2176.712648-47.849579)" fill="#262032" stroke-width="0.6"/><path d="M72.021476,150h111.982274L129.802284,62.382819L72.021476,150Z" transform="matrix(1.288614 0 0 1.451711 6451.473551-124.430606)" fill="#262032" stroke-width="0.6"/><path d="M72.021476,150h111.982274L129.802284,62.382819L72.021476,150Z" transform="matrix(1.288614 0 0 1.451711-2096.922165 43.040377)" fill="#262032" stroke-width="0.6"/><path d="M72.021476,150h111.982274L129.802284,62.382819L72.021476,150Z" transform="matrix(1.288614 0 0 1.451711-666.677739 11.327512)" fill="#262032" stroke-width="0.6"/><path d="M72.021476,150h111.982274L129.802284,62.382819L72.021476,150Z" transform="matrix(1.288614 0 0 1.451711 3608.083164-65.253515)" fill="#262032" stroke-width="0.6"/><path d="M72.021476,150h111.982274L129.802284,62.382819L72.021476,150Z" transform="matrix(1.288614 0 0 1.451711-4940.312552 102.217468)" fill="#262032" stroke-width="0.6"/><path d="M72.021476,150h111.982274L129.802284,62.382819L72.021476,150Z" transform="matrix(1.288614 0 0 1.451711-207.127708-3.287191)" fill="#262032" stroke-width="0.6"/><path d="M72.021476,150h111.982274L129.802284,62.382819L72.021476,150Z" transform="matrix(1.288614 0 0 1.451711 4067.633195-79.868218)" fill="#262032" stroke-width="0.6"/><path d="M72.021476,150h111.982274L129.802284,62.382819L72.021476,150Z" transform="matrix(1.288614 0 0 1.451711-4480.762521 87.602765)" fill="#262032" stroke-width="0.6"/><path d="M72.021476,150h111.982274L129.802284,62.382819L72.021476,150Z" transform="matrix(1.288614 0 0 1.451711 1227.026355-32.958732)" fill="#262032" stroke-width="0.6"/><path d="M72.021476,150h111.982274L129.802284,62.382819L72.021476,150Z" transform="matrix(1.288614 0 0 1.451711 5501.787258-109.539759)" fill="#262032" stroke-width="0.6"/><path d="M72.021476,150h111.982274L129.802284,62.382819L72.021476,150Z" transform="matrix(1.288614 0 0 1.451711-3046.608458 57.931224)" fill="#262032" stroke-width="0.6"/><path d="M72.021476,150h111.982274L129.802284,62.382819L72.021476,150Z" transform="matrix(1.288614 0 0 1.451711-1616.364032 26.218359)" fill="#262032" stroke-width="0.6"/><path d="M72.021476,150h111.982274L129.802284,62.382819L72.021476,150Z" transform="matrix(1.288614 0 0 1.451711 2658.396871-50.362668)" fill="#262032" stroke-width="0.6"/><path d="M72.021476,150h111.982274L129.802284,62.382819L72.021476,150Z" transform="matrix(1.288614 0 0 1.451711-5889.998845 117.108315)" fill="#262032" stroke-width="0.6"/><path d="M72.021476,150h111.982274L129.802284,62.382819L72.021476,150Z" transform="matrix(1.288614 0 0 1.451711-106.506059-4.159237)" fill="#262032" stroke-width="0.6"/><path d="M72.021476,150h111.982274L129.802284,62.382819L72.021476,150Z" transform="matrix(1.288614 0 0 1.451711 4168.254844-80.740264)" fill="#262032" stroke-width="0.6"/><path d="M72.021476,150h111.982274L129.802284,62.382819L72.021476,150Z" transform="matrix(1.288614 0 0 1.451711-4380.140872 86.730719)" fill="#262032" stroke-width="0.6"/><path d="M72.021476,150h111.982274L129.802284,62.382819L72.021476,150Z" transform="matrix(1.288614 0 0 1.451711 1327.648004-33.830778)" fill="#262032" stroke-width="0.6"/><path d="M72.021476,150h111.982274L129.802284,62.382819L72.021476,150Z" transform="matrix(1.288614 0 0 1.451711 5602.408907-110.411805)" fill="#262032" stroke-width="0.6"/><path d="M72.021476,150h111.982274L129.802284,62.382819L72.021476,150Z" transform="matrix(1.288614 0 0 1.451711-2945.986809 57.059178)" fill="#262032" stroke-width="0.6"/><path d="M72.021476,150h111.982274L129.802284,62.382819L72.021476,150Z" transform="matrix(1.288614 0 0 1.451711-1515.742383 25.346313)" fill="#262032" stroke-width="0.6"/><path d="M72.021476,150h111.982274L129.802284,62.382819L72.021476,150Z" transform="matrix(1.288614 0 0 1.451711 2759.01852-51.234714)" fill="#262032" stroke-width="0.6"/><path d="M72.021476,150h111.982274L129.802284,62.382819L72.021476,150Z" transform="matrix(1.288614 0 0 1.451711-5789.377196 116.236269)" fill="#262032" stroke-width="0.6"/><path d="M72.021476,150h111.982274L129.802284,62.382819L72.021476,150Z" transform="matrix(1.288614 0 0 1.451711 377.142813-13.064699)" fill="#262032" stroke-width="0.6"/><path d="M72.021476,150h111.982274L129.802284,62.382819L72.021476,150Z" transform="matrix(1.288614 0 0 1.451711 4651.903716-89.645726)" fill="#262032" stroke-width="0.6"/><path d="M72.021476,150h111.982274L129.802284,62.382819L72.021476,150Z" transform="matrix(1.288614 0 0 1.451711-3896.492 77.825257)" fill="#262032" stroke-width="0.6"/><path d="M72.021476,150h111.982274L129.802284,62.382819L72.021476,150Z" transform="matrix(1.288614 0 0 1.451711 1811.296876-42.73624)" fill="#262032" stroke-width="0.6"/><path d="M72.021476,150h111.982274L129.802284,62.382819L72.021476,150Z" transform="matrix(1.288614 0 0 1.451711 6086.057779-119.317267)" fill="#262032" stroke-width="0.6"/><path d="M72.021476,150h111.982274L129.802284,62.382819L72.021476,150Z" transform="matrix(1.288614 0 0 1.451711-2462.337937 48.153716)" fill="#262032" stroke-width="0.6"/><path d="M72.021476,150h111.982274L129.802284,62.382819L72.021476,150Z" transform="matrix(1.288614 0 0 1.451711-1032.093511 16.440851)" fill="#262032" stroke-width="0.6"/><path d="M72.021476,150h111.982274L129.802284,62.382819L72.021476,150Z" transform="matrix(1.288614 0 0 1.451711 3242.667392-60.140176)" fill="#262032" stroke-width="0.6"/><path d="M72.021476,150h111.982274L129.802284,62.382819L72.021476,150Z" transform="matrix(1.288614 0 0 1.451711-5305.728324 107.330807)" fill="#262032" stroke-width="0.6"/><path d="M72.021476,150h111.982274L129.802284,62.382819L72.021476,150Z" transform="matrix(1.288614 0 0 1.451711-572.54348 1.826148)" fill="#262032" stroke-width="0.6"/><path d="M72.021476,150h111.982274L129.802284,62.382819L72.021476,150Z" transform="matrix(1.288614 0 0 1.451711 3702.217423-74.754879)" fill="#262032" stroke-width="0.6"/><path d="M72.021476,150h111.982274L129.802284,62.382819L72.021476,150Z" transform="matrix(1.288614 0 0 1.451711-4846.178293 92.716104)" fill="#262032" stroke-width="0.6"/><path d="M72.021476,150h111.982274L129.802284,62.382819L72.021476,150Z" transform="matrix(1.288614 0 0 1.451711 861.610583-27.845393)" fill="#262032" stroke-width="0.6"/><path d="M72.021476,150h111.982274L129.802284,62.382819L72.021476,150Z" transform="matrix(1.288614 0 0 1.451711 5136.371486-104.42642)" fill="#262032" stroke-width="0.6"/><path d="M72.021476,150h111.982274L129.802284,62.382819L72.021476,150Z" transform="matrix(1.288614 0 0 1.451711-3412.02423 63.044563)" fill="#262032" stroke-width="0.6"/><path d="M72.021476,150h111.982274L129.802284,62.382819L72.021476,150Z" transform="matrix(1.288614 0 0 1.451711-1981.779804 31.331698)" fill="#262032" stroke-width="0.6"/><path d="M72.021476,150h111.982274L129.802284,62.382819L72.021476,150Z" transform="matrix(1.288614 0 0 1.451711 2292.981099-45.249329)" fill="#262032" stroke-width="0.6"/><path d="M72.021476,150h111.982274L129.802284,62.382819L72.021476,150Z" transform="matrix(1.288614 0 0 1.451711-6255.414617 122.221654)" fill="#262032" stroke-width="0.6"/><path d="M72.021476,150h111.982274L129.802284,62.382819L72.021476,150Z" transform="matrix(1.288614 0 0 1.184442-173.215091 42.929343)" fill="#413851" stroke-width="0.6"/><path d="M72.021476,150h111.982274L129.802284,62.382819L72.021476,150Z" transform="matrix(1.288614 0 0 1.184442 4101.545812-33.651684)" fill="#413851" stroke-width="0.6"/><path d="M72.021476,150h111.982274L129.802284,62.382819L72.021476,150Z" transform="matrix(1.288614 0 0 1.184442-4446.849904 133.819299)" fill="#413851" stroke-width="0.6"/><path d="M72.021476,150h111.982274L129.802284,62.382819L72.021476,150Z" transform="matrix(1.288614 0 0 1.184442 1260.938972 13.257802)" fill="#413851" stroke-width="0.6"/><path d="M72.021476,150h111.982274L129.802284,62.382819L72.021476,150Z" transform="matrix(1.288614 0 0 1.184442 5535.699875-63.323225)" fill="#413851" stroke-width="0.6"/><path d="M72.021476,150h111.982274L129.802284,62.382819L72.021476,150Z" transform="matrix(1.288614 0 0 1.184442-3012.695841 104.147758)" fill="#413851" stroke-width="0.6"/><path d="M72.021476,150h111.982274L129.802284,62.382819L72.021476,150Z" transform="matrix(1.288614 0 0 1.184442-1582.451415 72.434893)" fill="#413851" stroke-width="0.6"/><path d="M72.021476,150h111.982274L129.802284,62.382819L72.021476,150Z" transform="matrix(1.288614 0 0 1.184442 2692.309488-4.146134)" fill="#413851" stroke-width="0.6"/><path d="M72.021476,150h111.982274L129.802284,62.382819L72.021476,150Z" transform="matrix(1.288614 0 0 1.184442-5856.086228 163.324849)" fill="#413851" stroke-width="0.6"/><path d="M72.021476,150h111.982274L129.802284,62.382819L72.021476,150Z" transform="matrix(1.288614 0 0 1.184442 310.433781 34.023881)" fill="#413851" stroke-width="0.6"/><path d="M72.021476,150h111.982274L129.802284,62.382819L72.021476,150Z" transform="matrix(1.288614 0 0 1.184442 4585.194684-42.557146)" fill="#413851" stroke-width="0.6"/><path d="M72.021476,150h111.982274L129.802284,62.382819L72.021476,150Z" transform="matrix(1.288614 0 0 1.184442-3963.201032 124.913837)" fill="#413851" stroke-width="0.6"/><path d="M72.021476,150h111.982274L129.802284,62.382819L72.021476,150Z" transform="matrix(1.288614 0 0 1.184442 1744.587844 4.35234)" fill="#413851" stroke-width="0.6"/><path d="M72.021476,150h111.982274L129.802284,62.382819L72.021476,150Z" transform="matrix(1.288614 0 0 1.184442 6019.348747-72.228687)" fill="#413851" stroke-width="0.6"/><path d="M72.021476,150h111.982274L129.802284,62.382819L72.021476,150Z" transform="matrix(1.288614 0 0 1.184442-2529.046969 95.242296)" fill="#413851" stroke-width="0.6"/><path d="M72.021476,150h111.982274L129.802284,62.382819L72.021476,150Z" transform="matrix(1.288614 0 0 1.184442-1098.802543 63.529431)" fill="#413851" stroke-width="0.6"/><path d="M72.021476,150h111.982274L129.802284,62.382819L72.021476,150Z" transform="matrix(1.288614 0 0 1.184442 3175.95836-13.051596)" fill="#413851" stroke-width="0.6"/><path d="M72.021476,150h111.982274L129.802284,62.382819L72.021476,150Z" transform="matrix(1.288614 0 0 1.184442-5372.437356 154.419387)" fill="#413851" stroke-width="0.6"/><path d="M72.021476,150h111.982274L129.802284,62.382819L72.021476,150Z" transform="matrix(1.288614 0 0 1.184442-639.252512 48.914728)" fill="#413851" stroke-width="0.6"/><path d="M72.021476,150h111.982274L129.802284,62.382819L72.021476,150Z" transform="matrix(1.288614 0 0 1.184442 3635.508391-27.666299)" fill="#413851" stroke-width="0.6"/><path d="M72.021476,150h111.982274L129.802284,62.382819L72.021476,150Z" transform="matrix(1.288614 0 0 1.184442-4912.887325 139.804684)" fill="#413851" stroke-width="0.6"/><path d="M72.021476,150h111.982274L129.802284,62.382819L72.021476,150Z" transform="matrix(1.288614 0 0 1.184442 794.901551 19.243187)" fill="#413851" stroke-width="0.6"/><path d="M72.021476,150h111.982274L129.802284,62.382819L72.021476,150Z" transform="matrix(1.288614 0 0 1.184442 5069.662454-57.33784)" fill="#413851" stroke-width="0.6"/><path d="M72.021476,150h111.982274L129.802284,62.382819L72.021476,150Z" transform="matrix(1.288614 0 0 1.184442-3478.733262 110.133143)" fill="#413851" stroke-width="0.6"/><path d="M72.021476,150h111.982274L129.802284,62.382819L72.021476,150Z" transform="matrix(1.288614 0 0 1.184442-2048.488836 78.420278)" fill="#413851" stroke-width="0.6"/><path d="M72.021476,150h111.982274L129.802284,62.382819L72.021476,150Z" transform="matrix(1.288614 0 0 1.184442 2226.272067 1.839251)" fill="#413851" stroke-width="0.6"/><path d="M72.021476,150h111.982274L129.802284,62.382819L72.021476,150Z" transform="matrix(1.288614 0 0 1.184442-6322.123649 169.310234)" fill="#413851" stroke-width="0.6"/></g></g></svg>
